<svg xmlns="http://www.w3.org/2000/svg" viewBox="0 0 512 512">
  <defs>
    <linearGradient id="grad" x1="0%" y1="0%" x2="100%" y2="100%">
      <stop offset="0%" style="stop-color:#0ea5e9;stop-opacity:1" />
      <stop offset="100%" style="stop-color:#3b82f6;stop-opacity:1" />
    </linearGradient>
  </defs>
  <rect width="512" height="512" rx="128" fill="url(#grad)"/>
  <path d="M352 192c0-53-43-96-96-96s-96 43-96 96c0 36.6 20.9 68.6 51.5 84.9L160 368h48l24-64h48l24 64h48l-51.5-91.1C331.1 260.6 352 228.6 352 192zM256 240c-26.5 0-48-21.5-48-48s21.5-48 48-48 48 21.5 48 48-21.5 48-48 48z" fill="white"/>
</svg>
